<svg width="64" height="37" viewBox="0 0 64 37" fill="none" xmlns="http://www.w3.org/2000/svg">
<path d="M23.1426 21.569C23.1426 26.2366 19.7975 30.0485 14.9744 30.0485C10.1512 30.0485 6.7283 26.1587 6.7283 21.4913H0.466064V21.5692C0.466064 29.3096 6.49496 35.5719 14.8967 35.5719C23.2982 35.5719 29.4052 29.2316 29.4052 21.4913H23.1428L23.1426 21.569Z" fill="white"/>
<path d="M15.492 9.23294L11.2585 4.99936L15.494 0.763677L19.7276 4.99726L19.7303 4.99456L15.4946 0.759033L0.756042 15.4976H9.22725L15.492 9.23294Z" fill="#A70E13"/>
<path d="M11.2584 4.99935L15.492 9.23294L21.7566 15.4976H30.2278L19.7275 4.99726L15.4939 0.763672L11.2584 4.99935Z" fill="#FFDE1B"/>
<path d="M40.6131 15.6049C40.6131 10.9373 43.9583 7.1255 48.7813 7.1255C53.6044 7.1255 57.0274 11.0152 57.0274 15.6827H63.2897V15.6049C63.2897 7.86447 57.2608 1.60223 48.8591 1.60223C40.4574 1.60223 34.3506 7.9425 34.3506 15.6828H40.613L40.6131 15.6049Z" fill="white"/>
<path d="M48.2637 27.9411L52.4973 32.1747L48.2618 36.4104L44.0282 32.1768L44.0255 32.1795L48.2612 36.415L62.9997 21.6765H54.5285L48.2637 27.9411Z" fill="#006C6D"/>
<path d="M52.4974 32.1747L48.2638 27.9411L41.9992 21.6765H33.528L44.0283 32.1768L48.2618 36.4104L52.4974 32.1747Z" fill="#FFDE1B"/>
<path d="M14.9007 16.3409H12.8679V18.3738H14.9007V16.3409Z" fill="white"/>
<path d="M17.5707 16.3409H15.5378V18.3738H17.5707V16.3409Z" fill="white"/>
<path d="M14.9007 19.202H12.8679V21.2348H14.9007V19.202Z" fill="white"/>
<path d="M17.5707 19.202H15.5378V21.2348H17.5707V19.202Z" fill="white"/>
<path d="M48.7827 19.5808C50.572 19.5808 52.0225 18.1302 52.0225 16.3409C52.0225 14.5516 50.572 13.1011 48.7827 13.1011C46.9934 13.1011 45.5428 14.5516 45.5428 16.3409C45.5428 18.1302 46.9934 19.5808 48.7827 19.5808Z" fill="white"/>
</svg>
