<svg width="233" height="232" viewBox="0 0 233 232" fill="none" xmlns="http://www.w3.org/2000/svg">
<path d="M215.314 66.0549C214.074 63.459 210.909 63.7951 212.265 66.3909C216.566 74.7295 219.686 83.6259 221.535 92.8245C218.372 93.3923 212.717 93.9833 209.101 94.4005C206.505 77.3537 199.727 66.5879 190.352 55.7758C186.667 51.4648 202.636 46.5049 196.146 39.2853C193.296 36.2759 190.195 33.5155 186.875 31.0342C183.711 28.7165 180.559 29.6899 183.155 31.8338C196.528 42.8777 195.775 42.1708 193.318 45.4967C190.039 49.6802 184.162 53.18 187.894 57.4677C213.458 85.9872 204.813 111.714 208.753 111.239C211.071 110.961 209.994 99.824 209.542 97.4483C213.158 96.9963 218.916 96.2895 222.08 95.8723C224.398 108.967 222.08 113.429 224.456 113.719C227.052 113.719 225.616 99.8124 224.573 93.7284C222.859 84.1 219.739 74.7759 215.314 66.0549Z" fill="#F63D68"/>
<path d="M158.17 214.632C144.263 220.623 124.285 223.555 109.034 222.744C107.226 222.524 106.774 225.456 111.178 225.792C125.675 226.765 146.697 223.057 157.034 218.109C160.082 216.788 159.862 213.96 158.17 214.632Z" fill="#F63D68"/>
<path d="M193.513 166.296C186.743 176.835 177.856 185.851 167.416 192.773C156.977 199.696 145.213 204.374 132.87 206.508C130.1 206.902 130.379 209.985 135.119 208.988C150.458 206.025 164.805 199.25 176.838 189.287C179.318 192.115 182.086 194.873 184.856 197.539C186.93 199.52 189.26 200.018 191.404 197.875C210.084 178.823 221.534 155.484 218.625 153.259C217.721 152.586 217.062 153.374 216.818 154.047C211.053 169.905 201.655 184.192 189.376 195.765C188.217 196.924 188.217 197.202 178.946 187.399C185.469 181.661 191.17 175.051 195.888 167.756C204.36 170.804 208.543 157.813 200.524 155.008C193.408 152.517 188.437 161.324 193.513 166.296ZM194.312 160.304C196.004 154.881 204.129 157.987 201.429 163.468C199.679 167.003 193.177 164.94 194.312 160.304Z" fill="#F63D68"/>
<path d="M179.515 46.7945C181.207 48.1503 182.331 46.1223 180.419 44.3145C172.399 36.8631 157.543 29.8751 148.794 27.1402C145.317 25.7844 144.274 27.9283 146.198 28.7279C155.341 32.4478 162.689 35.3913 168.669 39.2271C157.602 60.8398 161.043 49.2976 177.475 68.7085C176.493 69.6724 175.82 70.9061 175.539 72.2531C175.259 73.6002 175.385 75.0002 175.9 76.2758C173.64 77.8495 171.261 79.2443 168.784 80.4477C167.196 78.4197 160.533 69.1604 157.821 70.5163C154.542 72.1618 166.918 76.1136 172.886 96.0111C172.921 96.1907 173.005 96.3568 173.13 96.4905C173.254 96.6242 173.414 96.7199 173.591 96.7667C173.767 96.8137 173.953 96.8102 174.128 96.7565C174.303 96.7028 174.459 96.6011 174.578 96.4631C175.934 95.3042 173.339 87.1922 170.396 82.916C172.879 81.7057 175.28 80.3314 177.581 78.8021C178.495 79.7123 179.655 80.3362 180.919 80.5976C182.182 80.859 183.494 80.7465 184.695 80.2738C191.509 94.1801 190.281 102.107 192.807 100.832C195.739 99.2443 187.953 79.9725 187.165 78.6978C192.356 73.7263 186.932 65.1392 180.152 67.3989C162.955 46.7597 161.994 60.5849 171.23 41.0813C174.159 42.7305 176.932 44.6428 179.515 46.7945ZM178.496 72.0923C180.316 67.3062 187.535 70.4004 186.064 74.804C184.534 79.6597 176.422 77.4694 178.496 72.0923Z" fill="#F63D68"/>
<path d="M204.813 122.132C191.254 129.015 199.17 147.209 212.717 144.382C229.324 139.41 220.967 115.584 204.813 122.132ZM209.553 123.708C211.593 123.708 215.996 131.959 215.428 132.747C214.86 133.535 210.793 135.574 209.785 135.574C208.777 135.574 204.476 133.315 203.909 132.863C203.341 132.179 207.525 123.708 209.553 123.708ZM209.9 141.554C208.428 141.67 202.947 135.122 203.909 135.006C204.87 134.891 208.881 137.266 209.785 137.15C210.689 137.034 214.189 135.122 215.313 135.006C216.437 134.891 211.36 141.554 209.9 141.554Z" fill="#F63D68"/>
<path d="M158.957 127.103C160.197 132.631 160.428 136.142 160.115 139.19C165.435 137.602 162.723 124.612 161.923 122.132C157.972 125.516 152.897 127.323 147.242 128.343C161.368 122.132 161.923 117.044 162.491 114.68C163.395 111.204 160.082 99.5108 158.541 101.933C153.662 109.535 134.205 106.116 129.847 111.644C127.53 115.121 128.49 126.222 128.49 126.222C127.134 122.375 121.538 106.904 133.347 106.232C141.459 104.308 153.348 105.664 157.184 97.8652C153 85.2221 151.993 81.1545 147.242 79.2308C141.598 76.9131 135.385 77.6547 108.837 82.3945C96.8661 84.3182 76.8643 87.3196 73.492 92.2216C68.1149 100.021 78.1274 143.281 87.9429 148.809C95.2901 152.285 111.781 148.809 129.291 145.761C144.611 143.026 158.725 141.218 158.957 127.103ZM134.899 112.409C138.63 109.465 143.591 112.293 143.139 114.669C136.708 112.513 132.708 118.389 138.178 122.572C131.967 123.256 131.225 115.352 134.899 112.409Z" fill="#F63D68"/>
<path d="M64.1974 54.9302C63.9656 55.7182 63.7454 57.1899 63.5137 58.314C65.8314 58.8819 67.2452 59.2179 67.8014 58.5458C68.3693 58.0939 69.2732 55.2662 64.1974 54.9302Z" fill="#F63D68"/>
<path d="M9.63924 123.824C8.5749 110.211 9.95243 96.5186 13.7068 83.3911C15.2386 83.858 16.8866 83.7646 18.3558 83.1276C19.8251 82.4907 21.0198 81.3517 21.7261 79.9146C25.11 80.9228 31.5532 84.55 33.3147 78.8948C35.3427 72.3472 38.5064 67.5959 42.6898 61.2801C44.3702 58.8349 37.9269 57.0503 30.2669 78.8948C29.4673 81.2125 24.8434 77.7359 22.4678 76.9711C22.4798 75.9788 22.2739 74.9959 21.8645 74.0919C21.4551 73.1879 20.8522 72.3848 20.0984 71.7394C19.3446 71.0939 18.4583 70.6218 17.5021 70.3564C16.5459 70.091 15.543 70.0387 14.5644 70.2033C8.92074 70.8755 7.11293 78.6746 11.0878 82.0584C7.41355 94.852 5.88632 108.166 6.56826 121.46C6.81162 125.516 9.75512 125.747 9.63924 123.824ZM12.5711 74.4679C15.3988 70.7364 21.7145 74.8735 19.0144 78.9875C16.0709 83.4375 9.54653 79.1034 12.5711 74.4679Z" fill="#F63D68"/>
<path d="M83.9551 173.527C76.1096 186.275 94.2341 199.845 104.061 186.959C113.1 172.392 92.0323 160.467 83.9551 173.527ZM94.1182 188.43C92.5422 188.43 92.2061 188.094 92.2061 187.19C92.2061 182.555 91.4876 185.498 96.0419 184.594C96.0419 188.071 96.2853 188.43 94.1414 188.43H94.1182ZM102.369 180.527C102.369 184.815 86.2148 184.815 86.1453 180.527C85.8092 178.603 92.5885 177.815 90.6648 179.368C90.1086 179.6 87.0492 180.052 88.521 180.84C90.2129 182.312 106.367 181.408 97.8961 179.368C97.4442 179.264 97.3283 178.684 98.012 178.58C99.7619 178.348 102.253 179.055 102.369 180.527ZM99.7735 173.574C100.782 173.806 100.782 174.373 100.782 175.497C101.013 177.815 98.6378 176.656 96.0419 176.969V180.237C94.7799 180.528 93.4682 180.528 92.2061 180.237V176.969C89.4944 176.737 87.0608 178.128 87.1187 175.382C87.1187 174.373 87.3505 173.817 88.4746 173.69C90.1781 173.551 98.3017 173.527 99.7735 173.632V173.574Z" fill="#F63D68"/>
<path d="M74.6968 179.287C63.2937 172.056 54.5906 161.209 48.7152 149.018C51.2068 147.859 56.6302 145.17 60.13 144.046C60.6862 144.95 61.37 146.306 61.9378 147.21C56.5143 152.518 63.2937 161.661 69.8412 158.161C71.4172 159.401 75.1488 164.489 77.0725 163.955C78.9962 163.422 74.8127 160.908 71.9851 156.388C72.8986 155.242 73.4121 153.828 73.4473 152.363C73.4824 150.897 73.0373 149.46 72.1798 148.271C71.3226 147.082 70.1004 146.206 68.6991 145.776C67.2978 145.346 65.7944 145.385 64.4177 145.889C60.9412 139.144 60.1184 140.431 47.4753 146.445C46.2751 143.846 45.2568 141.166 44.4275 138.426C43.9755 136.618 41.0436 136.618 42.5038 141.705C47.0233 157.292 57.9861 171.187 71.4172 180.33C73.9088 182.103 76.7596 180.643 74.6968 179.287ZM63.1082 150.71C65.4839 145.506 73.538 149.922 69.6558 154.777C66.9093 158.045 61.4858 154.777 63.0619 150.71H63.1082Z" fill="#F63D68"/>
<path d="M76.6196 57.1894C71.9842 40.4671 48.7143 48.0345 53.118 63.4009C57.1856 77.3999 79.7833 72.4284 76.6196 57.1894ZM71.1962 58.0933C70.92 58.8622 70.5293 59.585 70.0373 60.2372C72.1928 63.1691 69.2493 67.4685 65.4019 66.4487C65.1701 67.3526 65.1701 68.2565 63.8142 68.0247C62.4584 67.793 63.0262 67.0165 63.258 66.1126C62.7498 66.0267 62.2551 65.8748 61.7862 65.6607C61.5545 66.5646 61.5545 67.4685 60.1986 67.2367C59.1904 67.0165 59.4106 65.8809 59.7467 64.9769C59.1616 64.81 58.5948 64.5848 58.0547 64.3048C57.8321 64.2502 57.633 64.1253 57.4869 63.9486C57.3409 63.7718 57.2557 63.5528 57.244 63.3238C57.2323 63.0949 57.2947 62.8682 57.4219 62.6775C57.5492 62.4869 57.7345 62.3423 57.9504 62.2652C58.4024 62.1609 58.8543 62.3811 59.7467 62.6129C60.3145 60.4574 61.3343 56.2855 61.7862 54.2459C58.0547 53.9099 59.6424 51.1981 62.6902 52.102C62.9103 51.1981 63.0262 50.1783 64.3821 50.2942C65.7379 50.4101 65.1701 51.6501 64.9499 52.4381C65.286 52.554 65.7379 52.6699 66.1088 52.7858C66.3406 51.8819 66.4564 50.6303 67.8007 50.978C69.145 51.3256 68.4844 52.554 68.1484 53.4579C70.2923 54.3618 71.6481 56.0537 71.1962 58.0933Z" fill="#F63D68"/>
<path d="M66.793 61.0252C65.4371 60.805 64.4173 60.5732 62.9456 60.353C62.6095 61.593 62.4936 62.6707 62.2734 63.4008C69.1686 65.8576 68.6472 61.4192 66.793 61.0252Z" fill="#F63D68"/>
<path d="M178.946 122.838C178.946 117.044 176.294 117.647 176.236 119.906C175.842 136.525 169.282 148.878 157.369 159.667C155.121 161.695 158.62 162.483 160.428 160.826C165.997 155.926 170.495 149.929 173.64 143.211C176.688 144.903 181.891 147.731 184.591 149.643C181.21 155.935 177.161 161.844 172.514 167.269C170.707 169.529 174.241 169.679 176.35 167.385C182.573 160.594 186.851 152.702 190.466 143.999C192.39 139.259 190.129 136.652 189.109 139.595C188.194 142.136 187.138 144.624 185.946 147.047C182.898 144.903 178.158 142.412 174.879 140.615C175.667 139.19 179.062 128.795 178.946 122.838Z" fill="#F63D68"/>
<path d="M40.6941 170.352C44.611 169.912 32.8254 164.222 26.0113 131.264C25.7564 130.035 25.1074 129.688 24.4353 130.255C22.2914 132.063 26.9152 146.294 27.599 148.554C24.6555 149.562 18.3281 151.602 14.9442 152.726C13.608 148.653 12.5129 144.505 11.6647 140.303C11.2127 137.823 8.84865 138.947 9.52079 142.226C11.3286 152.506 13.5884 159.285 17.6328 166.4C19.1045 168.88 21.3295 168.22 20.4604 166.504C18.6278 162.957 17.1153 159.254 15.9409 155.437C19.5565 154.197 25.768 152.274 28.6883 151.266C29.8587 153.873 37.0784 170.815 40.6941 170.352Z" fill="#F63D68"/>
<path d="M137.61 192.046C143.034 190.018 141.353 187.897 139.638 188.569C135.02 190.263 130.194 191.327 125.291 191.733C124.851 188.338 123.947 182.022 123.947 178.626C126.543 177.954 135.536 177.386 136.37 174.339C136.706 173.099 134.782 173.655 133.994 173.887C121.247 177.804 119.149 170.572 122.475 191.849C112.046 193.216 107.051 190.69 108.245 193.089C108.894 194.804 123.762 197.087 137.61 192.046Z" fill="#F63D68"/>
<path d="M152.745 168.104C138.63 172.507 142.582 194.421 158.54 191.594C174.995 186.958 167.764 164.372 152.745 168.104ZM154.888 187.804C154.32 188.812 149.731 187.955 147.773 184.073C146.127 180.828 147.1 175.717 148.931 175.833C149.488 175.833 149.719 176.505 149.488 177.073C147.796 180.689 150.056 185.66 154.007 186.448C154.552 186.506 155.224 187.19 154.888 187.735V187.804ZM157.206 184.641C155.514 185.313 153.729 184.073 154.042 182.949C154.069 182.817 154.124 182.692 154.204 182.584C154.284 182.475 154.386 182.386 154.504 182.321C154.622 182.256 154.753 182.217 154.887 182.207C155.021 182.198 155.156 182.217 155.282 182.265C156.522 182.497 158.562 181.929 157.762 180.793C156.962 179.657 153.254 182.381 151.968 179.785C151.637 179.179 151.547 178.471 151.714 177.801C151.882 177.131 152.295 176.549 152.872 176.169C152.084 174.813 152.535 174.361 152.987 174.13C153.671 173.794 154.227 173.573 154.911 175.381C157.658 174.686 159.465 178.105 156.151 177.629C154.274 177.328 152.165 179.623 155.583 178.788C159.535 177.769 161.911 181.384 159.06 183.76C160.763 185.498 158.052 186.854 157.264 184.594L157.206 184.641ZM156.974 172.102C157.797 170.653 162.061 172.438 163.869 175.833C165.445 178.649 165.11 183.285 163.187 183.621C162.399 183.737 161.947 183.285 162.283 182.462C162.618 181.551 162.763 180.58 162.709 179.611C162.654 178.641 162.402 177.693 161.967 176.825C161.533 175.957 160.925 175.187 160.182 174.562C159.44 173.937 158.577 173.471 157.647 173.191C157.149 172.959 156.719 172.67 157.032 172.055L156.974 172.102Z" fill="#F63D68"/>
<path d="M54.7395 115.353C55.7593 116.512 56.4315 115.353 56.4315 114.565C56.844 101.27 61.5613 88.4678 69.8742 78.084C70.3262 77.4002 67.4985 76.1603 64.5666 80.6798C61.4058 85.5986 58.8274 90.8681 56.8834 96.3823C56.8834 96.3823 48.5281 94.2384 45.7004 93.4388C44.2287 92.9869 44.3446 92.9869 44.5416 91.8628C45.5498 87.3432 49.3972 79.9961 50.9732 77.2959C52.5493 74.5958 50.0693 74.4683 47.8096 78.3042C44.6459 83.7276 40.8564 91.5267 42.0153 94.3427C42.8265 96.139 44.1708 95.9999 56.0259 99.1984C54.1369 105.456 53.5807 114.113 54.7395 115.353Z" fill="#F63D68"/>
<path d="M66.456 38.9953C89.4477 21.1837 97.0846 33.5603 87.8022 12.4575C86.7824 10.1977 83.8389 9.62989 85.0904 12.7936C92.2753 31.1035 89.6447 19.0514 66.5487 35.3913C63.0605 37.8713 64.9843 40.131 66.456 38.9953Z" fill="#F63D68"/>
<path d="M30.8681 51.6501C39.1192 41.4869 46.5706 32.6796 56.7338 26.9201C60.2104 32.1118 69.1567 29.6318 69.0524 23.0727C68.8786 13.2456 53.9873 14.1495 55.4938 24.3127C45.4827 30.0724 36.8804 37.9899 30.3118 47.4898C27.7044 51.0823 29.744 53.006 30.8681 51.6501ZM59.4455 20.2567C61.8675 17.2552 66.5609 19.6888 66.3987 23.0727C65.657 30.304 54.7985 26.0162 59.4455 20.2567Z" fill="#F63D68"/>
<path d="M47.3589 200.969C50.8355 203.449 51.7509 200.877 50.6384 200.065C41.0724 192.971 32.9467 184.117 26.6965 173.98C25.6767 172.392 23.2199 173.412 26.2445 178.383C31.7296 187.227 38.9045 194.902 47.3589 200.969Z" fill="#F63D68"/>
<path d="M36.5237 120.66C50.4299 109.825 33.4295 90.437 21.0413 102.257C10.2987 112.513 24.6106 129.363 36.5237 120.66ZM36.4078 109.477C37.1958 110.277 37.8795 110.949 37.0799 111.795C36.7438 112.247 35.8399 113.151 35.0519 112.363C34.2639 111.575 33.5802 111.343 34.148 110.439C34.6 109.929 35.388 108.573 36.4078 109.477ZM25.2248 106.881C27.3687 105.073 28.8404 102.141 30.7641 103.833C34.1364 107.206 34.4725 107.461 33.8119 108.121C32.3402 110.277 31.3204 108.017 30.3354 107.113C28.9795 105.641 27.6236 110.161 26.036 108.921C25.4566 108.353 24.3209 107.669 25.2248 106.881ZM30.3122 112.305C29.7443 112.757 29.2924 112.757 28.1567 111.401C27.8206 111.065 27.7048 110.613 28.9563 109.477C29.5126 109.025 29.8602 108.689 31.2161 110.277C31.5637 110.949 31.668 111.181 30.3122 112.305ZM23.9848 112.305C23.3011 113.093 22.5131 112.305 22.0611 111.737C21.6092 111.169 21.389 110.578 22.177 109.825C23.753 108.237 24.205 109.825 24.8887 110.277C25.4566 111.401 24.7728 111.517 23.9848 112.305ZM25.2248 114.785C24.5527 113.776 25.4566 113.429 26.0128 112.872C27.6005 111.969 28.9563 116.256 30.4165 114.68C30.7641 114.564 32.4561 112.073 33.1282 112.872C33.5802 113.545 34.8201 114.031 33.9278 114.9C30.1152 117.798 30.8916 120.973 25.2248 114.785Z" fill="#F63D68"/>
<path d="M132.384 22.8529C124.424 21.3113 116.292 20.8552 108.21 21.497C103.574 21.8331 104.362 24.5448 106.286 24.4289C115.441 23.7568 124.922 24.6607 133.625 25.7848C137.02 26.2368 136.37 23.6409 132.384 22.8529Z" fill="#F63D68"/>
<path d="M154.774 57.8621C159.629 41.8235 136.312 35.6352 131.966 50.0746C127.748 64.1083 148.678 72.6607 154.774 57.8621ZM150.937 60.006C150.149 60.3536 148.005 60.2378 147.321 59.3338C142.883 53.4121 141.458 59.1368 139.419 60.006C138.967 60.1219 135.687 60.2378 136.475 59.1021C137.842 57.2931 139.576 55.7927 141.561 54.6984C143.085 54.2852 144.696 54.3255 146.197 54.8143C146.985 55.1504 152.513 59.3338 150.925 60.006H150.937ZM139.87 48.1509C143.636 52.7863 144.864 51.9403 148.341 47.8148C149.103 47.4178 149.967 47.2602 150.821 47.3628C153.046 47.3628 147.878 52.7515 145.178 53.2383C141.493 53.9683 139.383 51.6043 136.706 48.823C134.388 46.8414 139.174 47.05 139.87 48.1509Z" fill="#F63D68"/>
<path d="M161.438 15.7374C149.131 9.52595 136.475 5.79443 121.236 5.79443C116.936 5.79443 115.928 8.39027 118.176 8.62205C133.402 8.68273 148.405 12.2768 162.005 19.1213C164.381 20.257 165.169 17.5452 161.438 15.7374Z" fill="#F63D68"/>
<path d="M120.667 55.7178C122.023 55.7178 122.986 55.2775 122.36 54.2461C120.68 51.5807 104.467 52.8902 93.8984 56.9578C92.4266 54.362 89.7844 49.1239 88.1041 46.3427C87.5594 45.4272 87.8723 44.9868 88.4401 44.6507C93.1799 41.8231 101.188 40.5831 105.499 40.3514C108.094 49.2746 122.105 44.5348 118.246 35.4957C115.766 29.2843 105.707 30.8603 105.255 37.4195C101.188 37.9873 86.9568 39.8994 84.9288 44.3147C84.361 45.5546 85.149 46.7946 85.7168 47.7912C97.0389 69.6125 87.9882 54.8487 120.667 55.7178ZM109.936 35.0438C115.127 32.2278 118.628 39.8994 113.551 42.0549C109.206 43.967 105.729 37.6396 109.936 35.0438Z" fill="#F63D68"/>
<path d="M88.2548 218.931C83.237 217.587 74.4528 216.277 75.264 213.844C76.7535 210.272 78.4482 206.79 80.3398 203.414C86.3192 205.877 92.531 207.733 98.8816 208.953C99.5537 215.733 109.045 217.425 111.756 211.665C115.708 202.962 102.717 197.318 99.3335 206.242C77.3152 202.105 66.2249 190.806 64.8807 193.494C63.5364 196.183 75.8435 201.282 77.7556 202.417C69.6436 217.32 69.6436 217.749 86.0066 221.168C88.7068 221.747 90.9666 219.603 88.2548 218.931ZM102.37 206.844C104.745 202.105 111.409 205.685 109.253 210.46C107.005 214.748 100.226 211.468 102.37 206.844Z" fill="#F63D68"/>
<path d="M182.565 107.334C172.46 109.176 170.35 108.643 169.353 110.277C169.237 112.189 173.189 110.949 174.313 110.834C176.468 110.498 180.756 109.93 182.784 109.594C188.752 108.597 187.79 109.733 195.219 117.706C196.227 118.61 197.131 120.533 198.695 120.638C200.607 120.301 199.253 118.494 198.581 117.926C196.553 115.608 193.492 112.132 191.464 109.907C189.343 106.882 185.856 106.731 182.565 107.334Z" fill="#101828"/>
<path d="M140.995 110.381C133.88 107.333 127.9 116.94 133.544 122.132C134.83 123.325 136.505 124.011 138.259 124.061C140.012 124.112 141.725 123.523 143.077 122.405C143.973 121.666 144.678 120.722 145.132 119.652C146.871 116.036 144.495 111.853 140.995 110.381ZM140.439 121.344C138.515 122.132 135.236 122.016 133.996 118.968C132.524 115.017 136.14 110.949 140.091 112.525C144.043 114.101 144.611 119.536 140.497 121.344H140.439Z" fill="#101828"/>
<path d="M127.215 74.1668C124.573 61.3151 125.28 62.3697 129.707 58.6845C130.379 58.2325 130.379 56.8767 129.139 57.2243C126.879 57.8965 123.716 60.388 123.6 63.0997C123.38 67.0514 124.168 70.0529 124.851 74.387C114.225 76.0789 103.609 77.8636 93.1102 80.0306C91.3835 69.2533 91.256 68.4421 90.0624 67.3875C88.2545 65.6956 83.9436 64.7106 81.9504 64.2238C79.3429 63.5981 78.4738 63.5401 78.2188 64.444C77.7901 66.7617 86.7249 66.6111 88.6486 69.7632C89.8074 71.6753 89.8885 75.4068 90.7924 80.5985C80.2932 82.7424 74.7539 84.2141 70.918 87.7139C61.9948 95.8259 66.6187 109.408 70.2343 127.358C64.8515 128.745 59.3807 129.763 53.8597 130.406C50.696 130.858 49.2242 129.398 46.9065 127.474C41.5989 122.839 40.0113 121.251 39.4551 121.68C37.7052 123.152 47.0224 130.858 48.8302 131.843C50.4864 132.743 52.4097 133.023 54.2537 132.631C59.8052 131.937 65.3114 130.92 70.7442 129.583C77.9755 155.681 78.6476 158.729 106.101 153.919C107.758 166.945 107.92 164.349 104.397 168.486C103.308 169.761 104.397 171.198 106.773 169.054C110.25 165.925 109.647 166.006 108.361 153.467C117.052 152.112 125.64 150.756 134.216 149.168C134.332 150.42 134.505 151.312 135.014 154.024C136.023 159.436 136.37 163.179 141.562 167.814C144.042 170.062 145.63 168.718 144.158 167.246L140.994 164.083C137.379 160.131 136.822 149.968 136.475 148.716C145.514 146.908 155.793 145.784 159.86 140.141C168.668 138.982 166.813 128.054 165.284 121.947C165.125 121.249 164.896 120.57 164.601 119.919C166.861 116.755 166.86 112.571 166.292 107.044C165.852 103.208 165.284 94.0528 159.629 94.0528C156.813 70.4006 147.658 70.5164 127.215 74.1668ZM143.138 145.205C132.303 147.696 121.26 149.493 110.157 150.999C102.161 152.065 93.6664 154.279 85.6471 153.317C76.8398 152.077 72.3203 125.087 70.582 117.172C69.6781 108.701 65.3903 98.3174 70.918 90.7501C71.8219 95.1537 85.7166 92.7781 92.7161 91.202C110.458 87.2387 124.237 83.9708 140.496 83.6347C149.419 84.1909 149.535 94.3657 152.015 101.018C145.699 104.065 138.11 103.498 131.354 104.853C120.738 107.113 124.909 118.632 126.833 125.527C128.641 131.959 136.325 130.163 141.181 130.035C145.333 129.725 149.429 128.891 153.372 127.555C155.863 126.651 157.682 126.779 158.458 130.719C160.683 141.67 154.147 142.667 143.138 145.17V145.205ZM160.881 137.753C161.669 133.57 160.196 128.378 159.629 124.426C160.736 123.628 161.793 122.761 162.792 121.831C163.812 126.536 166.293 135.239 160.881 137.719V137.753ZM159.292 96.4169C162.236 94.725 163.928 104.656 164.148 106.916C164.762 113.58 167.451 123.87 141.11 127.706C137.042 128.262 130.832 129.166 129.592 125.551C127.448 119.235 123.264 108.504 132.071 106.916C139.986 105.444 152.294 106.58 157.37 99.2329C157.718 98.5028 158.62 96.7182 159.292 96.3821V96.4169ZM158.134 94.4932C156.21 95.9649 155.538 98.329 153.73 99.8008C151.806 91.5613 150.672 82.1861 140.845 81.259C124.134 81.4792 110.471 84.527 91.4889 88.5946C77.2581 91.6424 71.7883 91.0861 74.6623 88.0268C77.1423 85.3266 85.1615 84.0751 91.2687 82.8351C91.4889 84.191 92.0568 87.4705 93.2967 86.3117C94.0848 85.6395 93.8646 84.8515 93.5285 82.36C104.028 80.2161 114.643 78.4082 125.258 76.7163C125.71 79.6482 125.836 80.4247 126.508 80.668C127.98 81.2011 127.668 78.0722 127.518 76.3803C148.609 73.1123 153.313 71.8491 158.168 94.4584L158.134 94.4932Z" fill="#101828"/>
</svg>
