<svg width="206" height="206" viewBox="0 0 206 206" fill="none" xmlns="http://www.w3.org/2000/svg">
<path d="M205.779 67.6043C205.779 30.3267 175.559 0.107422 138.282 0.107422C125.349 0.107422 113.267 3.74567 103 10.053C92.7335 3.74567 80.6514 0.107422 67.7185 0.107422C30.441 0.107422 0.22168 30.3267 0.22168 67.6043C0.22168 80.5372 3.85992 92.6193 10.1673 102.886C3.85992 113.153 0.22168 125.235 0.22168 138.168C0.22168 175.445 30.441 205.665 67.7185 205.665C80.6514 205.665 92.7335 202.026 103 195.719C113.267 202.026 125.349 205.665 138.282 205.665C175.559 205.665 205.779 175.445 205.779 138.168C205.779 125.235 202.141 113.153 195.833 102.886C202.141 92.6193 205.779 80.5372 205.779 67.6043Z" fill="#DEF2FF"/>
<path d="M176.76 144.417L178.943 145.742C180.306 146.568 182.015 146.568 183.378 145.742L185.561 144.417L184.237 146.601C183.41 147.963 183.41 149.673 184.237 151.036L185.561 153.219L183.378 151.894C182.015 151.068 180.306 151.068 178.943 151.894L176.76 153.219L178.084 151.036C178.911 149.673 178.911 147.963 178.084 146.601L176.76 144.417Z" fill="#94E3FF"/>
<path d="M176.761 153.794C176.613 153.794 176.465 153.736 176.355 153.625C176.168 153.438 176.133 153.147 176.27 152.921L177.594 150.738C178.312 149.554 178.312 148.083 177.594 146.899L176.27 144.715C176.133 144.489 176.168 144.198 176.355 144.011C176.542 143.824 176.833 143.789 177.059 143.926L179.242 145.25C180.426 145.968 181.898 145.968 183.082 145.25L185.265 143.926C185.491 143.789 185.782 143.824 185.969 144.011C186.156 144.198 186.191 144.489 186.054 144.715L184.73 146.899C184.012 148.083 184.012 149.554 184.73 150.738L186.053 152.921C186.191 153.147 186.156 153.438 185.968 153.625C185.781 153.813 185.49 153.848 185.264 153.71L183.081 152.386C181.897 151.668 180.426 151.668 179.242 152.386L177.059 153.71C176.966 153.766 176.863 153.794 176.761 153.794ZM178.468 146.126L178.576 146.303C179.517 147.855 179.517 149.782 178.576 151.334L178.468 151.512L178.646 151.404C180.198 150.463 182.125 150.463 183.677 151.404L183.854 151.512L183.747 151.334C182.806 149.782 182.806 147.855 183.747 146.303L183.854 146.126L183.677 146.233C182.125 147.174 180.198 147.174 178.646 146.233L178.468 146.126Z" fill="#3B5C91"/>
<path d="M181.161 21.8928L183.641 21.2856C185.189 20.9064 186.398 19.6977 186.777 18.1494L187.384 15.6699L187.991 18.1494C188.37 19.6977 189.579 20.9064 191.127 21.2856L193.607 21.8928L191.127 22.5C189.579 22.8792 188.37 24.0879 187.991 25.6362L187.384 28.1157L186.777 25.6362C186.398 24.0879 185.189 22.8792 183.641 22.5L181.161 21.8928Z" fill="#FFD385"/>
<path d="M187.385 28.6903C187.12 28.6903 186.889 28.5093 186.827 28.2525L186.22 25.773C185.89 24.4281 184.85 23.3877 183.505 23.0585L181.026 22.4513C180.769 22.3881 180.588 22.1577 180.588 21.8935C180.588 21.6286 180.769 21.3983 181.026 21.3356L183.505 20.7284C184.85 20.3992 185.89 19.3588 186.22 18.0139L186.827 15.5344C186.89 15.2776 187.12 15.0967 187.385 15.0967C187.649 15.0967 187.88 15.2776 187.943 15.5344L188.55 18.0139C188.879 19.3588 189.919 20.3992 191.264 20.7284L193.744 21.3356C194.001 21.3988 194.181 21.6292 194.181 21.8935C194.181 22.1583 194.001 22.3887 193.744 22.4513L191.264 23.0585C189.919 23.3877 188.879 24.4281 188.55 25.773L187.943 28.2525C187.88 28.5099 187.65 28.6903 187.385 28.6903ZM183.577 21.8929L183.779 21.9423C185.541 22.3737 186.904 23.737 187.336 25.4995L187.385 25.7012L187.435 25.4995C187.866 23.737 189.229 22.3737 190.992 21.9423L191.194 21.8929L190.992 21.8435C189.229 21.412 187.866 20.0488 187.435 18.2862L187.385 18.0846L187.336 18.2862C186.904 20.0488 185.541 21.412 183.779 21.8435L183.577 21.8929Z" fill="#3B5C91"/>
<path d="M6.27677 58.1194L8.29955 65.6687C8.63964 66.9384 10.2264 67.3635 11.1559 66.434L16.6825 60.9074C17.612 59.9778 17.1869 58.3911 15.9173 58.051L8.36791 56.0282C7.09829 55.6881 5.93667 56.8498 6.27677 58.1194Z" fill="#FFD385"/>
<path d="M9.95794 67.5107C9.7586 67.5107 9.55695 67.4843 9.35703 67.4309C8.56021 67.2172 7.957 66.6139 7.74329 65.8171L5.72051 58.2683C5.5068 57.4715 5.72798 56.6477 6.31108 56.064C6.89419 55.4809 7.71858 55.2597 8.5154 55.4734L16.0648 57.4962C16.8616 57.7099 17.4648 58.3131 17.6785 59.11C17.8922 59.9068 17.671 60.7306 17.0879 61.3143L11.5613 66.8409C11.1242 67.2769 10.552 67.5107 9.95794 67.5107ZM6.83042 57.9707L8.8532 65.5201C8.95948 65.9159 9.25879 66.2153 9.65404 66.321C10.0499 66.4272 10.4589 66.3175 10.7484 66.028L16.275 60.5014C16.5646 60.2118 16.6743 59.8028 16.568 59.407C16.4623 59.0111 16.1624 58.7118 15.7672 58.6061L8.21782 56.5834C7.82199 56.4776 7.41295 56.5868 7.12341 56.8763C6.83387 57.1659 6.72472 57.5749 6.83042 57.9707Z" fill="#3B5C91"/>
<path d="M116.133 195.539L117.414 187.83C117.63 186.533 116.361 185.49 115.13 185.951L107.812 188.696C106.582 189.158 106.312 190.778 107.327 191.613L113.364 196.578C114.379 197.413 115.917 196.836 116.133 195.539Z" fill="#FF9494"/>
<path d="M114.44 197.545C113.922 197.545 113.416 197.366 112.998 197.023L106.961 192.058C106.324 191.534 106.024 190.735 106.16 189.921C106.295 189.107 106.837 188.449 107.609 188.159L114.927 185.414C115.699 185.124 116.541 185.264 117.178 185.788C117.815 186.312 118.115 187.11 117.98 187.924L116.698 195.634C116.563 196.448 116.021 197.107 115.248 197.397C114.984 197.496 114.71 197.545 114.44 197.545ZM115.733 186.416C115.598 186.416 115.463 186.44 115.331 186.489L108.013 189.234C107.63 189.378 107.361 189.705 107.293 190.109C107.226 190.513 107.375 190.909 107.692 191.17L113.728 196.134C114.044 196.395 114.462 196.464 114.845 196.32C115.228 196.176 115.498 195.849 115.565 195.445L116.847 187.735C116.914 187.332 116.765 186.935 116.449 186.675C116.241 186.504 115.99 186.416 115.733 186.416Z" fill="#3B5C91"/>
<path d="M11.7347 167.877L13.9385 165.673C14.4417 165.17 14.4417 164.353 13.9385 163.85C13.4352 163.347 12.6189 163.347 12.1156 163.85L9.91185 166.054L7.70811 163.85C7.20486 163.347 6.38851 163.347 5.88525 163.85C5.382 164.353 5.382 165.17 5.88525 165.673L8.089 167.877L5.88525 170.08C5.382 170.584 5.382 171.4 5.88525 171.903C6.38851 172.407 7.20486 172.407 7.70811 171.903L9.91185 169.7L12.1156 171.903C12.6189 172.407 13.4352 172.407 13.9385 171.903C14.4417 171.4 14.4417 170.584 13.9385 170.08L11.7347 167.877Z" fill="#FF9494"/>
<path d="M88.0881 12.1506H85.2973V9.35972C85.2973 8.72203 84.7802 8.20557 84.1431 8.20557C83.5054 8.20557 82.989 8.72261 82.989 9.35972V12.1506H80.1981C79.5604 12.1506 79.0439 12.6676 79.0439 13.3047C79.0439 13.9424 79.561 14.4589 80.1981 14.4589H82.989V17.2498C82.989 17.8874 83.506 18.4039 84.1431 18.4039C84.7808 18.4039 85.2973 17.8869 85.2973 17.2498V14.4589H88.0881C88.7258 14.4589 89.2423 13.9418 89.2423 13.3047C89.2429 12.6676 88.7258 12.1506 88.0881 12.1506Z" fill="#FF9494"/>
<path d="M169.294 73.5618L154.653 57.5623L153.237 56.0152L151.652 57.3888L136.743 70.3073C136.569 70.0982 136.393 69.8903 136.216 69.6834C136.171 69.6317 136.127 69.5806 136.083 69.5295C135.955 69.3807 135.826 69.2331 135.696 69.086C135.648 69.0314 135.6 68.9774 135.552 68.9228C135.381 68.7304 135.209 68.5391 135.036 68.3495C132.698 65.7947 130.098 63.4474 127.31 61.3735C124.494 59.2789 121.46 57.4439 118.292 55.9204C115.065 54.3681 111.667 53.1226 108.19 52.2184C104.624 51.2912 100.933 50.7115 97.2187 50.4961C93.5046 50.2812 89.7716 50.4306 86.1218 50.9396C82.5646 51.4365 79.0447 52.281 75.6604 53.4507C72.3381 54.5985 69.1118 56.0703 66.0733 57.826C63.0635 59.5644 60.21 61.5958 57.5938 63.8633C54.9764 66.1308 52.5733 68.654 50.4512 71.3621C48.3083 74.0967 46.4326 77.0444 44.8775 80.1237C43.293 83.2604 42.024 86.5643 41.1059 89.9457C40.1644 93.4139 39.5807 97.0056 39.371 100.62C39.1619 104.235 39.3267 107.87 39.8616 111.424C40.3832 114.889 41.2616 118.317 42.4738 121.616C43.6636 124.854 45.1854 127.998 46.9985 130.962C48.7938 133.897 50.8895 136.681 53.2271 139.235C53.4006 139.425 53.5764 139.613 53.7528 139.801C53.8022 139.853 53.8522 139.906 53.9021 139.958C54.0377 140.1 54.1739 140.242 54.3106 140.384C54.3577 140.432 54.4048 140.481 54.4525 140.53C54.8253 140.912 55.2045 141.288 55.5888 141.659C55.6043 141.674 55.6199 141.688 55.6354 141.703C55.8192 141.88 56.0042 142.056 56.1909 142.23C56.2099 142.248 56.2294 142.266 56.2484 142.283C57.7414 143.678 59.3144 144.992 60.9534 146.21C63.769 148.305 66.8035 150.14 69.9712 151.663C73.1981 153.215 76.5968 154.461 80.073 155.365C83.6395 156.292 87.33 156.872 91.0446 157.088C94.7587 157.302 98.4923 157.153 102.141 156.644C105.699 156.147 109.219 155.303 112.603 154.133C115.926 152.985 119.152 151.513 122.19 149.758C125.2 148.019 128.053 145.988 130.67 143.72C133.287 141.453 135.69 138.93 137.812 136.221C139.955 133.487 141.831 130.539 143.386 127.46C144.97 124.323 146.239 121.019 147.157 117.638C147.936 114.767 148.471 111.812 148.75 108.829C148.809 108.208 148.856 107.586 148.892 106.963C149.101 103.348 148.936 99.7126 148.401 96.1588C148.325 95.6562 148.241 95.1546 148.151 94.6537L166.368 78.8684L169.124 76.4802L170.709 75.1066L169.294 73.5618Z" fill="black" fill-opacity="0.05"/>
<path d="M91.3266 154.972C84.0656 154.972 77.0212 153.549 70.3893 150.744C63.9838 148.035 58.2314 144.156 53.2919 139.217C48.3525 134.277 44.4741 128.525 41.7648 122.12C38.9595 115.488 37.5371 108.443 37.5371 101.182C37.5371 93.9201 38.9595 86.8763 41.7648 80.2438C44.4741 73.8383 48.3525 68.0859 53.2919 63.1464C58.2314 58.207 63.9838 54.3286 70.3893 51.6193C77.0212 48.814 84.0656 47.3916 91.3266 47.3916C98.5876 47.3916 105.632 48.814 112.264 51.6193C118.67 54.3286 124.422 58.207 129.362 63.1464C134.301 68.0859 138.18 73.8383 140.889 80.2438C143.694 86.8757 145.117 93.9201 145.117 101.182C145.117 108.443 143.694 115.487 140.889 122.12C138.18 128.525 134.301 134.277 129.362 139.217C124.422 144.156 118.67 148.035 112.264 150.744C105.632 153.549 98.5876 154.972 91.3266 154.972Z" fill="#A1E7FF"/>
<path d="M145.065 90.1293C144.419 86.973 143.488 83.8633 142.295 80.8691C142.155 80.5209 142.014 80.1751 141.868 79.8304C140.493 76.5794 138.791 73.4444 136.81 70.5122C134.848 67.6081 132.595 64.877 130.113 62.3958C127.632 59.914 124.901 57.6608 121.997 55.699C119.064 53.7175 115.929 52.0159 112.678 50.6411C109.367 49.2405 105.902 48.1651 102.38 47.4441C98.766 46.7047 95.0473 46.3296 91.3269 46.3296C87.6065 46.3296 83.8884 46.7047 80.2743 47.4441C76.7515 48.1651 73.2868 49.2405 69.9754 50.6411C66.725 52.0159 63.5894 53.7175 60.6572 55.699C57.7531 57.6608 55.022 59.914 52.5408 62.3958C50.059 64.877 47.8059 67.6081 45.844 70.5122C43.8626 73.4444 42.1609 76.5794 40.7862 79.8304C39.3855 83.1418 38.3101 86.6065 37.5891 90.1293C36.8498 93.7428 36.4746 97.4615 36.4746 101.182C36.4746 104.902 36.8498 108.621 37.5891 112.235C38.3101 115.757 39.3855 119.222 40.7862 122.533C42.1609 125.784 43.8626 128.919 45.844 131.852C47.8059 134.756 50.059 137.487 52.5408 139.968C55.022 142.45 57.7531 144.703 60.6572 146.665C63.5894 148.646 66.725 150.348 69.9754 151.723C73.2868 153.123 76.7515 154.199 80.2743 154.92C83.8884 155.659 87.6065 156.034 91.3269 156.034C95.0473 156.034 98.766 155.659 102.38 154.92C105.902 154.199 109.367 153.123 112.678 151.723C115.929 150.348 119.064 148.646 121.997 146.665C124.901 144.703 127.632 142.45 130.113 139.968C132.595 137.487 134.848 134.756 136.81 131.852C138.791 128.919 140.493 125.784 141.868 122.533C143.268 119.222 144.344 115.757 145.065 112.235C145.677 109.244 146.039 106.181 146.145 103.104C146.168 102.464 146.179 101.823 146.179 101.182C146.179 97.4615 145.804 93.7428 145.065 90.1293ZM143.946 104.575C142.197 132.114 119.307 153.909 91.3269 153.909C62.2072 153.909 38.6002 130.302 38.6002 101.182C38.6002 72.0616 62.2072 48.4552 91.3269 48.4552C113.71 48.4552 132.834 62.4015 140.487 82.0784C142.79 88.0014 144.054 94.4443 144.054 101.182C144.054 102.322 144.017 103.453 143.946 104.575Z" fill="#3B5C91"/>
<path d="M55.5741 141.583C53.5927 138.651 51.891 135.516 50.5163 132.265C49.1157 128.954 48.0402 125.489 47.3193 121.966C46.5799 118.353 46.2048 114.634 46.2048 110.913C46.2048 107.193 46.5799 103.474 47.3193 99.8609C48.0402 96.3381 49.1157 92.8734 50.5163 89.562C51.891 86.311 53.5927 83.176 55.5741 80.2438C57.536 77.3397 59.7891 74.6086 62.2709 72.1274C64.7522 69.6456 67.4833 67.3924 70.3873 65.4306C73.3195 63.4491 76.4551 61.7475 79.7056 60.3727C83.0169 58.9721 86.4817 57.8967 90.0044 57.1757C93.6186 56.4363 97.3367 56.0612 101.057 56.0612C104.777 56.0612 108.496 56.4363 112.11 57.1757C115.632 57.8967 119.097 58.9721 122.409 60.3727C125.66 61.7475 128.795 63.4491 131.727 65.4306C132.73 66.1085 133.713 66.8225 134.673 67.5677C133.262 65.7517 131.737 64.0208 130.113 62.3972C127.632 59.9154 124.901 57.6623 121.997 55.7004C119.064 53.719 115.929 52.0174 112.678 50.6426C109.367 49.242 105.902 48.1666 102.38 47.4456C98.766 46.7062 95.0473 46.3311 91.3269 46.3311C87.6065 46.3311 83.8884 46.7062 80.2743 47.4456C76.7515 48.1666 73.2868 49.242 69.9754 50.6426C66.725 52.0174 63.5894 53.719 60.6572 55.7004C57.7531 57.6623 55.022 59.9154 52.5408 62.3972C50.059 64.8785 47.8059 67.6096 45.844 70.5136C43.8626 73.4458 42.1609 76.5808 40.7862 79.8319C39.3855 83.1432 38.3101 86.608 37.5891 90.1308C36.8498 93.7443 36.4746 97.463 36.4746 101.183C36.4746 104.904 36.8498 108.622 37.5891 112.236C38.3101 115.759 39.3855 119.224 40.7862 122.535C42.1609 125.786 43.8626 128.921 45.844 131.853C47.8059 134.757 50.059 137.488 52.5408 139.969C54.1643 141.594 55.8952 143.119 57.7112 144.529C56.9661 143.569 56.2526 142.587 55.5741 141.583Z" fill="black" fill-opacity="0.05"/>
<path d="M146.178 101.181C146.178 101.823 146.167 102.463 146.144 103.104L145.052 103.834L143.945 104.574L116.491 122.937L99.5729 134.253L98.07 135.258L96.5665 134.253L60.2036 109.932L58.7002 108.927L60.2036 107.921L75.7447 97.5266L77.2476 96.5212L78.751 97.5266L98.07 110.447L140.486 82.0779L141.39 81.473L142.294 80.8687C143.487 83.8629 144.418 86.9726 145.064 90.1289C145.803 93.7424 146.178 97.4611 146.178 101.181Z" fill="black" fill-opacity="0.1"/>
<path d="M60.2051 95.8892L77.2496 78.8447L98.072 99.6665L147.571 50.1655L164.616 67.2101L115.741 116.086L98.072 133.756L60.2051 95.8892Z" fill="#FFD385"/>
<path d="M147.572 51.6689L163.113 67.2106L114.991 115.334L98.0724 132.253L61.7089 95.8891L77.2505 80.3474L98.0724 101.169L147.572 51.6689ZM147.572 48.6626L146.069 50.1655L98.0724 98.1629L78.7534 78.844L77.2505 77.3411L75.7477 78.844L60.206 94.3857L58.7031 95.8885L60.206 97.3914L96.5689 133.755L98.0718 135.258L99.5746 133.755L116.493 116.837L164.616 68.7134L166.118 67.2106L164.616 65.7077L149.074 50.166L147.572 48.6626Z" fill="#3B5C91"/>
</svg>
